Clean Scene Releases and no fakes    http://bitxtre.me/


-------------------------------------------------------------------------------------
                                   nfo




 [pre]  
    *********** ****    ****      ***      ******** *********** ****    *** **********
           *+*     +*+*+* *+*+*+   *+* *+*   *+*    *+*    *+*     *+*+*   *+* *+*        
           +*+     +*+ +*+*+ +*+  +*+   +*+  +*+           +*+     *+*+*+  +*+ +*+        
           +$+     +$+  +*+  +$+ +$++*++$++* *$*           +$+     +$+ +*+ +$+ +$++*++$  
           +$+     +$+       +$+ +$+     +$+ +$+   +$+$    +$+     +$+  +$+$+$ +$+        
           $+$     $+$       $+$ $+$     $+$ $+$    $+$    $+$     $+$   $+$+$ $+$        
       $$$$$$$$$$$ $$$       $$$ $$$     $$$  $$$$$$$$ $$$$$$$$$$$ $$$    $$$$ $$$$$$$$$$     
                                                



                           Another Fine Release Brought to you from - IMAGiNE                   
                                                 

********************************************************************************************************************                                
                                       Skyline R5 XViD AC3 - IMAGiNE

********************************************************************************************************************

Ripper ...........:IMAGiNE                                   IMDB Rating.......:4.6/10                             
Video Codec.......:XVID                                      Release Date......:12/03/10
Audio Codec.......:AC3                                       Theatre Date......:11/12/10
Audio Bitrate.....:192                                       Runtime...........:1h 28mn
Subtitles.........:NIL                                       Language..........:ENGLISH
Resolution........:720 x 400                                 IMDb URL..........:http://www.imdb.com/title/tt1564585/


[color=yellow]DETAILS:[/color]

Video
ID                               : 0
Format                           : MPEG-4 Visual
Format profile                   : Advanced Simple@L5
Format settings, BVOP            : Yes
Format settings, QPel            : No
Format settings, GMC             : No warppoints
Format settings, Matrix          : Default (H.263)
Muxing mode                      : Packed bitstream
Codec ID                         : XVID
Codec ID/Hint                    : XviD
Duration                         : 1h 28mn
Bit rate                         : 2 091 Kbps
Width                            : 720 pixels
Height                           : 400 pixels
Display aspect ratio             : 16:9
Frame rate                       : 25.000 fps
Color space                      : YUV
Chroma subsampling               : 4:2:0
Bit depth                        : 8 bits
Scan type                        : Progressive
Bits/(Pixel*Frame)               : 0.290
Stream size                      : 1.30 GiB (82%)
Writing library                  : XviD 1.1.2 (UTC 2006-11-01)

Audio
ID                               : 1
Format                           : AC-3
Format/Info                      : Audio Coding 3
Mode extension                   : CM (complete main)
Codec ID                         : 2000
Duration                         : 1h 28mn
Bit rate mode                    : Constant
Bit rate                         : 448 Kbps
Channel(s)                       : 6 channels
Channel positions                : Front: L C R, Side: L R, LFE
Sampling rate                    : 48.0 KHz
Bit depth                        : 16 bits
Stream size                      : 284 MiB (18%)
Alignment                        : Aligned on interleaves
Interleave, duration             : 40 ms (1.00 video frame)
Interleave, preload duration     : 512 ms






[color=yellow]SOURCES:[/color]

VIDEO:Skajlajn.2010.D.DVD.ELEKTRI4KA ......Thanks mate :)
AUDIO:Skajlajn.2010.D.DVD.ELEKTRI4KA ......Thanks mate :)

[color=yellow]NOTES:[/color]

IMAGiNE bringing you another release.......... Skyline

Here we are with our encode of the R5 of this one.  This R5 is a fairly good source, but we did 
do our normal work to it of increase brightness,lowered contrast,sharpened,changed the rgb eq 
and crop and resized. Turned out pretty good... 
The audio was just muxed of the 5.1 Studio Audio back to the encode. :)

Enjoy folks....



[color=yellow]SCREENS:[/color]



[color=yellow]GREETS:[/color]

FLAWL3SS,ViSiON,FUSiON,Rx,SecretMyth,BirdFlu,ELEKTRI4KA and Autotron
And to all the other p2p grps past and present 

[COLOR=RED]Looking for these,syncers,cammers,silver supplier.....Have anything to offer????......
Contact us imaginegroup@hushmail.com[/COLOR][/pre]

